<svg width="50" height="50" viewBox="0 0 50 50" fill="none" xmlns="http://www.w3.org/2000/svg">
<path d="M35.8525 0H14.1475C6.33406 0 0 6.33406 0 14.1475V35.8525C0 43.6659 6.33406 50 14.1475 50H35.8525C43.6659 50 50 43.6659 50 35.8525V14.1475C50 6.33406 43.6659 0 35.8525 0Z" fill="#B399D4"/>
<path d="M38.2615 31.6219C38.2615 33.6166 37.7476 35.4087 36.72 36.9982C35.6923 38.5877 34.189 39.8324 32.2102 40.7323C30.2309 41.6316 27.8837 42.0816 25.1687 42.0821C21.9143 42.0821 19.23 41.4673 17.1157 40.2376C15.6307 39.3668 14.3769 38.1515 13.4602 36.6943C12.5227 35.2173 12.0542 33.7812 12.0548 32.386C12.0487 32.0004 12.1202 31.6175 12.2652 31.2601C12.4101 30.9027 12.6255 30.5781 12.8984 30.3056C13.4602 29.7291 14.1761 29.4405 15.0459 29.4399C15.7065 29.4238 16.3473 29.6659 16.8322 30.1148C17.321 30.5648 17.7379 31.2314 18.083 32.1148C18.5029 33.1643 18.9567 34.0415 19.4443 34.7465C19.932 35.4514 20.6181 36.0327 21.5026 36.4903C22.386 36.9479 23.5483 37.1764 24.9894 37.1758C26.9694 37.1758 28.5777 36.7147 29.8145 35.7924C31.0512 34.8701 31.6696 33.7194 31.6696 32.3401C31.6696 31.2459 31.336 30.3572 30.6687 29.674C30.0015 28.9909 29.1393 28.4697 28.0821 28.1104C27.0221 27.7512 25.6087 27.3684 23.8419 26.962C21.4714 26.4072 19.4882 25.7594 17.8922 25.0185C16.2962 24.2777 15.03 23.2656 14.0936 21.9823C13.1514 20.7002 12.6817 19.1069 12.6846 17.2023C12.6846 15.3878 13.1793 13.7756 14.1687 12.3657C15.1581 10.9558 16.5904 9.87249 18.4655 9.11572C20.3401 8.35836 22.5445 7.97968 25.0786 7.97968C27.1034 7.97968 28.8542 8.23085 30.3313 8.73321C31.8083 9.23557 33.0344 9.90341 34.0097 10.7367C34.9844 11.5689 35.6967 12.4426 36.1466 13.3578C36.5966 14.273 36.8215 15.1652 36.8215 16.0344C36.8215 16.8295 36.5403 17.5456 35.9779 18.1829C35.7203 18.4883 35.3978 18.7326 35.034 18.8979C34.6702 19.0632 34.2741 19.1455 33.8745 19.1387C33.1089 19.1387 32.528 18.9476 32.1316 18.5654C31.7353 18.1832 31.3039 17.5568 30.8374 16.6864C30.2373 15.4414 29.5177 14.4697 28.6784 13.7712C27.8392 13.0727 26.4894 12.7241 24.629 12.7253C22.9046 12.7253 21.5138 13.1039 20.4567 13.8613C19.3996 14.6187 18.8696 15.5294 18.8666 16.5936C18.8519 17.2078 19.0418 17.8094 19.4064 18.3039C19.807 18.8178 20.3135 19.2395 20.8913 19.5406C21.4988 19.8768 22.1398 20.1483 22.8039 20.3507C23.4482 20.5462 24.5127 20.8313 25.9973 21.2058C27.7072 21.5969 29.3953 22.0776 31.0548 22.6458C32.5618 23.1717 33.8442 23.8092 34.9019 24.5583C35.9447 25.2925 36.7935 26.2689 37.3754 27.4037C37.9655 28.5515 38.2609 29.9576 38.2615 31.6219Z" fill="white"/>
</svg>
